<svg id="Raggruppa_10761" data-name="Raggruppa 10761" xmlns="http://www.w3.org/2000/svg" width="22.888" height="22.929" viewBox="0 0 22.888 22.929">
    <path id="Tracciato_10480" data-name="Tracciato 10480" 
    d="M18.019,9.142A1,1,0,0,0,19,9.95a1.04,1.04,0,0,0,.192-.018,1,1,0,0,0,.79-1.173,5.971,5.971,0,0,0-4.74-4.74,1,1,0,1,0-.383,1.962A3.986,3.986,0,0,1,18.019,9.142Z" 
    transform="translate(-1.112 0.001)" fill="#c41230"></path>
    <path id="Tracciato_10481" data-name="Tracciato 10481" 
    d="M15.16.006a1,1,0,0,0-.221,1.988,7.958,7.958,0,0,1,7.067,7.058A1,1,0,0,0,23,9.94a1.051,1.051,0,0,0,.112-.006,1,1,0,0,0,.883-1.106A9.947,9.947,0,0,0,15.16.006Z" 
    transform="translate(-1.112 0.001)" fill="#c41230"></path><path id="Tracciato_10482" data-name="Tracciato 10482" d="M20.41,13.9a11.927,11.927,0,0,1-2.588-.643,3,3,0,0,0-3.169.678l-.717.717A15.008,15.008,0,0,1,9.35,10.064l.721-.721a3.007,3.007,0,0,0,.676-3.163,11.931,11.931,0,0,1-.647-2.6A3,3,0,0,0,7.139,1H4.11c-.089,0-.178,0-.268.012A3,3,0,0,0,1.125,4.286a20.9,20.9,0,0,0,3.221,9.1,20.6,20.6,0,0,0,6.3,6.3,20.9,20.9,0,0,0,9.081,3.228c.086.008.172.012.252.012h.033A3,3,0,0,0,23,19.92V16.931A3,3,0,0,0,20.41,13.9ZM21,16.92v3a.994.994,0,0,1-.29.707.907.907,0,0,1-.782.294,18.887,18.887,0,0,1-8.2-2.92,18.627,18.627,0,0,1-5.7-5.7A18.875,18.875,0,0,1,3.116,4.09a1,1,0,0,1,.228-.731A1.041,1.041,0,0,1,4.11,3H7.129a1,1,0,0,1,.99.852,13.874,13.874,0,0,0,.755,3.03,1,1,0,0,1-.221,1.051L7.383,9.2a1,1,0,0,0-.162,1.2A17,17,0,0,0,13.6,16.779a1,1,0,0,0,1.2-.162l1.266-1.266a1,1,0,0,1,1.058-.223,13.886,13.886,0,0,0,3.019.752A1,1,0,0,1,21,16.9Z" 
    transform="translate(-1.112 0.001)" fill="#c41230">
    </path>
</svg>